<svg xmlns="http://www.w3.org/2000/svg" viewBox="0 0 36.71 36.71"><defs><style>.cls-1{fill:#89694e}</style></defs><title>Asset 2</title><g id="Layer_2" data-name="Layer 2"><g id="_01-SINGLE-GREY" data-name="01-SINGLE-GREY"><path id="Facebook" class="cls-1" d="M36.71 34.68a2 2 0 0 1-2 2h-9.38V22.49h4.77l.72-5.49h-5.49v-3.58c0-1.6.45-2.7 2.75-2.7H31v-5a39.21 39.21 0 0 0-4.28-.22c-4.23 0-7.13 2.58-7.13 7.32V17h-4.77v5.54h4.78v14.17H2a2 2 0 0 1-2-2V2a2 2 0 0 1 2-2h32.69a2 2 0 0 1 2 2z"/></g></g></svg>