<svg xmlns="http://www.w3.org/2000/svg" viewBox="0 0 40.35 25.68"><defs><style>.cls-1{fill:#89694e}</style></defs><title>Asset 1</title><g id="Layer_2" data-name="Layer 2"><g id="_01-SINGLE-GREY" data-name="01-SINGLE-GREY"><path class="cls-1" d="M12.82 10.3v5.08h6.93c-1.09 3.3-2.77 5.09-6.93 5.09a7.51 7.51 0 0 1-7.49-7.63 7.51 7.51 0 0 1 7.49-7.63 7.25 7.25 0 0 1 5 1.87c1.05-1.06 1-1.21 3.65-3.74a12.83 12.83 0 1 0-8.62 22.34c10.55 0 13.15-9.23 12.28-15.38zm23.09.25V6.1h-3.17v4.45h-4.57v3.18h4.57v4.58h3.17v-4.58h4.44v-3.18h-4.44z" id="Google_" data-name="Google+"/></g></g></svg>