<svg xmlns="http://www.w3.org/2000/svg" viewBox="0 0 36.71 36.71"><defs><style>.cls-1{fill:#89694e;}</style></defs><title>Asset 2</title><g id="Layer_2" data-name="Layer 2"><g id="_01-SINGLE-GREY" data-name="01-SINGLE-GREY"><path id="Facebook" class="cls-1" d="M36.71,34.68a2,2,0,0,1-2,2H25.33V22.49H30.1L30.82,17H25.33V13.42c0-1.6.45-2.7,2.75-2.7H31v-5a39.21,39.21,0,0,0-4.28-.22c-4.23,0-7.13,2.58-7.13,7.32V17H14.82v5.54h4.78V36.71H2a2,2,0,0,1-2-2V2A2,2,0,0,1,2,0H34.69a2,2,0,0,1,2,2Z"/></g></g></svg>