<svg xmlns="http://www.w3.org/2000/svg" viewBox="0 0 40.35 25.68"><defs><style>.cls-1{fill:#89694e;}</style></defs><title>Asset 1</title><g id="Layer_2" data-name="Layer 2"><g id="_01-SINGLE-GREY" data-name="01-SINGLE-GREY"><g id="Google_" data-name="Google+"><path class="cls-1" d="M12.82,10.3v5.08h6.93c-1.09,3.3-2.77,5.09-6.93,5.09a7.51,7.51,0,0,1-7.49-7.63,7.51,7.51,0,0,1,7.49-7.63,7.25,7.25,0,0,1,5,1.87c1.05-1.06,1-1.21,3.65-3.74a12.83,12.83,0,1,0-8.62,22.34C23.4,25.68,26,16.45,25.13,10.3Z"/><polygon class="cls-1" points="35.91 10.55 35.91 6.1 32.74 6.1 32.74 10.55 28.17 10.55 28.17 13.73 32.74 13.73 32.74 18.31 35.91 18.31 35.91 13.73 40.35 13.73 40.35 10.55 35.91 10.55"/></g></g></g></svg>