<svg xmlns="http://www.w3.org/2000/svg" viewBox="0 0 36.89 33.54"><defs><style>.cls-1{fill:#89694e;}</style></defs><title>Asset 3</title><g id="Layer_2" data-name="Layer 2"><g id="_01-SINGLE-GREY" data-name="01-SINGLE-GREY"><g id="LinkedIn"><rect class="cls-1" x="0.93" y="10.75" width="7.19" height="22.78"/><path class="cls-1" d="M27.77,10.54c-4.12,0-6.7,2.23-7.18,3.79V10.75H12.51c.1,1.9,0,22.78,0,22.78h8.08V21.21a5.19,5.19,0,0,1,.18-1.86,4.11,4.11,0,0,1,3.89-2.79c2.8,0,4.08,2.11,4.08,5.19V33.54h8.15V20.87C36.89,13.81,32.88,10.54,27.77,10.54Z"/><path class="cls-1" d="M4.39,0C1.74,0,0,1.71,0,4A4,4,0,0,0,4.29,7.9h.05c2.7,0,4.39-1.75,4.39-4A4,4,0,0,0,4.39,0Z"/></g></g></g></svg>