<svg xmlns="http://www.w3.org/2000/svg" viewBox="0 0 37.45 31.21"><defs><style>.cls-1{fill:#89694e;}</style></defs><title>Twitter</title><g id="Layer_2" data-name="Layer 2"><g id="_01-SINGLE-GREY" data-name="01-SINGLE-GREY"><path id="Twitter" class="cls-1" d="M36.42.58a15.13,15.13,0,0,1-4.88,1.91A7.58,7.58,0,0,0,25.93,0a7.78,7.78,0,0,0-7.68,7.88,8,8,0,0,0,.2,1.79A21.63,21.63,0,0,1,2.61,1.44a8,8,0,0,0-1,4A7.93,7.93,0,0,0,5,12,7.54,7.54,0,0,1,1.5,11v.1A7.83,7.83,0,0,0,7.67,18.8a7.33,7.33,0,0,1-2,.28,7.47,7.47,0,0,1-1.45-.14,7.71,7.71,0,0,0,7.18,5.47,15.17,15.17,0,0,1-9.54,3.37A15.38,15.38,0,0,1,0,27.67a21.39,21.39,0,0,0,11.78,3.54c14.14,0,21.86-12,21.86-22.42,0-.34,0-.69,0-1a15.77,15.77,0,0,0,3.83-4.08A15,15,0,0,1,33,4.93,7.86,7.86,0,0,0,36.42.58Z"/></g></g></svg>