<svg xmlns="http://www.w3.org/2000/svg" viewBox="0 0 36.89 33.54"><defs><style>.cls-1{fill:#89694e}</style></defs><title>Asset 3</title><g id="Layer_2" data-name="Layer 2"><g id="_01-SINGLE-GREY" data-name="01-SINGLE-GREY"><path class="cls-1" d="M.93 10.75h7.19v22.78H.93zm26.84-.21c-4.12 0-6.7 2.23-7.18 3.79v-3.58h-8.08c.1 1.9 0 22.78 0 22.78h8.08V21.21a5.19 5.19 0 0 1 .18-1.86 4.11 4.11 0 0 1 3.89-2.79c2.8 0 4.08 2.11 4.08 5.19v11.79h8.15V20.87c0-7.06-4.01-10.33-9.12-10.33zM4.39 0C1.74 0 0 1.71 0 4a4 4 0 0 0 4.29 3.9h.05c2.7 0 4.39-1.75 4.39-4A4 4 0 0 0 4.39 0z" id="LinkedIn"/></g></g></svg>